<?xml version="1.0" encoding="UTF-8" standalone="no"?><svg width="56" height="56" viewBox="0 0 56 56" fill="none" xmlns="http://www.w3.org/2000/svg">
<g clip-path="url(#clip0_2016_11)">
<path fill-rule="evenodd" clip-rule="evenodd" d="M42.4838 24.9792C42.1316 23.8606 36.5384 17.9566 34.4047 17.3766C32.9642 17.2534 31.5157 17.2534 30.0752 17.3766C27.6374 17.2721 25.1955 17.3136 22.7626 17.5009C21.9133 17.5009 20.1525 17.1902 19.4274 17.9566C17.9184 19.326 16.4868 20.7783 15.1393 22.3069C14.2716 23.2114 13.5009 24.2043 12.8399 25.2692C12.4463 26.0978 13.2128 26.885 13.7721 27.8587C14.3314 28.8323 17.0244 33.3483 19.5724 37.45C21.1675 40.0601 24.1713 42.9396 25.0413 44.2239C25.1237 44.3613 25.2573 44.4603 25.4127 44.4991C25.5681 44.538 25.7326 44.5135 25.8699 44.4311C26.0073 44.3487 26.1063 44.2151 26.1451 44.0597C26.184 43.9043 26.1595 43.7398 26.0771 43.6025C26.2461 40.4214 26.1213 37.2315 25.7042 34.0733C25.2097 31.8609 24.5164 29.6977 23.6327 27.6101C26.2525 27.9513 28.9055 27.9513 31.5253 27.6101C31.1422 28.5355 30.6993 29.4351 30.1995 30.3031C29.0557 32.8465 28.1674 35.4973 27.5479 38.2164C27.5098 38.298 27.4882 38.3864 27.4842 38.4763C27.4803 38.5663 27.4941 38.6562 27.5249 38.7408C27.5556 38.8255 27.6028 38.9032 27.6636 38.9696C27.7244 39.036 27.7977 39.0898 27.8794 39.1279C27.961 39.166 28.0493 39.1876 28.1393 39.1916C28.2292 39.1955 28.3191 39.1817 28.4037 39.151C28.4884 39.1202 28.5661 39.073 28.6325 39.0122C28.699 38.9514 28.7527 38.8781 28.7908 38.7965C30.5788 35.6885 31.9706 32.3689 32.9339 28.9152C33.1436 28.4624 33.2833 27.9805 33.3483 27.4858C35.7098 27.1958 38.0507 26.8643 40.3708 26.6986C39.5629 28.4801 29.0394 42.256 27.5065 43.0639C27.3444 43.149 27.2228 43.2951 27.1684 43.4699C27.114 43.6447 27.1313 43.834 27.2165 43.9961C27.3016 44.1581 27.4477 44.2797 27.6225 44.3341C27.7973 44.3885 27.9866 44.3712 28.1487 44.2861C29.868 43.4367 37.9264 33.369 39.1072 31.8568C40.4951 29.9302 43.1674 27.2579 42.4838 24.9792ZM32.8925 19.5725C33.7833 19.5725 34.094 19.5725 35.1919 20.4839C34.262 21.6254 33.4435 22.8532 32.7475 24.1506C31.7109 22.9668 30.6114 21.8396 29.4537 20.774C28.9408 20.4182 28.456 20.0234 28.0036 19.5932C28.604 19.5622 29.2055 19.5622 29.8059 19.5932C30.8343 19.6473 31.865 19.6404 32.8925 19.5725ZM22.7626 19.7796C25.9321 19.7796 25.7042 19.4482 25.4556 19.9453C25.2899 20.1111 21.7476 23.6534 21.5404 24.0884C21.2992 22.7312 20.9102 21.4044 20.3803 20.1318C21.1256 19.7928 21.9494 19.6639 22.7626 19.7589V19.7796ZM22.2447 28.0658C23.6327 37.2428 23.5291 32.5818 24.5234 41.8002C21.644 38.3614 21.4783 38.2164 15.4293 26.9265C15.4293 26.9265 14.9321 26.3464 14.7043 25.9736C15.1186 25.3314 16.2579 24.2127 16.7758 23.6327C17.5536 22.7478 18.3911 21.9173 19.2824 21.1468C19.4276 22.6257 19.7332 24.0844 20.1939 25.4971H17.1073C15.2843 25.1449 15.2222 26.4914 15.9886 26.7193L22.2033 27.3822C22.1826 27.6515 22.2447 27.8587 22.2447 27.9622V28.0658ZM22.8248 25.58C23.6534 24.6063 26.3671 22.5762 26.9679 21.8304C28.5008 23.0319 30.8831 25.1864 31.111 25.5385C28.3499 25.6703 25.5836 25.6495 22.8248 25.4764V25.58ZM34.1976 25.3935C34.7434 24.0299 35.4381 22.7308 36.2691 21.5197C37.678 22.6637 39.0199 23.888 40.288 25.1864C38.2164 25.1449 36.1448 25.1864 34.1976 25.2899V25.3935Z" fill="black"/>
<path fill-rule="evenodd" clip-rule="evenodd" d="M11.017 14.9114C11.1104 15.068 11.2622 15.1811 11.4389 15.2257C11.6157 15.2704 11.803 15.243 11.9595 15.1496C12.1161 15.0563 12.2292 14.9045 12.2739 14.7277C12.3185 14.5509 12.2912 14.3637 12.1978 14.2071C11.8663 13.3578 11.597 12.5499 11.2863 11.7627C10.6634 10.6392 9.73748 9.71321 8.61398 9.09036C8.1168 8.84177 7.90965 9.29751 7.80607 9.42181C6.95673 10.6026 10.872 14.7457 11.017 14.9114Z" fill="black"/>
<path fill-rule="evenodd" clip-rule="evenodd" d="M44.7004 14.8285C47.642 11.514 46.0883 13.8342 47.8077 10.064C47.9734 9.69108 47.9734 9.44249 47.9113 9.33891C47.8491 9.23533 47.6005 8.75888 47.1034 9.00746C45.9799 9.63032 45.0539 10.5563 44.4311 11.6798C44.0375 12.467 43.7682 13.2541 43.4367 14.1035C43.3406 14.2711 43.3149 14.47 43.3654 14.6564C43.4159 14.8429 43.5385 15.0017 43.706 15.0978C43.8736 15.194 44.0725 15.2196 44.259 15.1691C44.4454 15.1186 44.6042 14.9961 44.7004 14.8285Z" fill="black"/>
<path fill-rule="evenodd" clip-rule="evenodd" d="M11.1619 31.0488C11.7834 31.0488 12.2184 30.2823 11.4312 29.6608C10.4338 29.073 9.31319 28.7255 8.15817 28.6458C7.20526 28.6458 3.49718 28.7908 3.06215 29.6194C2.91714 29.868 3.06215 30.0751 3.24859 30.3237C3.80791 30.9245 10.0019 31.0488 11.1619 31.0488Z" fill="black"/>
<path fill-rule="evenodd" clip-rule="evenodd" d="M52.7173 29.5365C50.5019 28.4687 47.967 28.2691 45.6118 28.9772C45.1726 29.1286 44.7494 29.3229 44.3482 29.5572C43.5817 30.158 43.9753 30.9659 44.6175 30.9659C46.9858 31.1268 49.365 30.9454 51.6815 30.4273C51.969 30.3779 52.2528 30.3086 52.5308 30.2201C52.7173 29.9301 52.7173 29.7851 52.7173 29.5365Z" fill="black"/>
<path fill-rule="evenodd" clip-rule="evenodd" d="M13.7928 39.3557C11.0583 41.7173 12.2391 39.5836 7.16383 45.9847C6.9981 46.3369 7.16383 47.0412 8.0546 46.689C10.7854 45.1188 13.1064 42.9255 14.8286 40.2879C14.922 40.1472 14.9617 39.9775 14.9405 39.8099C14.9193 39.6423 14.8385 39.4879 14.7129 39.3749C14.5873 39.2619 14.4253 39.1978 14.2564 39.1942C14.0875 39.1907 13.923 39.248 13.7928 39.3557Z" fill="black"/>
<path fill-rule="evenodd" clip-rule="evenodd" d="M44.7833 41.4272C43.8718 40.6193 42.7117 40.0393 41.9245 39.2521C41.1373 38.4649 40.2673 39.5214 40.8888 40.1843C42.055 41.7801 43.3432 43.283 44.7418 44.6796C45.1147 45.0317 47.642 46.7511 48.1185 46.7511C48.5949 46.7511 48.7814 46.4404 48.5535 45.9639C48.5742 45.7982 45.384 41.9451 44.7833 41.4272Z" fill="black"/>
</g>
<defs>
<clipPath id="clip0_2016_11">
<rect width="49.7173" height="49.7173" fill="white" transform="translate(3 3)"/>
</clipPath>
</defs>
</svg>
