<?xml version="1.0" encoding="UTF-8" standalone="no"?><svg width="57" height="56" viewBox="0 0 57 56" fill="none" xmlns="http://www.w3.org/2000/svg">
<g clip-path="url(#clip0_2016_10)">
<path d="M33.9759 49.3853C32.2392 49.9554 30.4481 50.3442 28.6313 50.5453C26.8206 50.742 24.9939 50.742 23.1831 50.5453C20.9258 50.3359 18.7086 49.813 16.5956 48.9917C14.5134 48.1807 12.5864 47.0175 10.8988 45.5529C6.67181 41.6973 3.97938 36.4448 3.31694 30.762C2.37102 25.1384 3.6649 19.368 6.92144 14.6867C8.66123 12.2662 10.8395 10.1933 13.3433 8.57565C15.841 6.9609 18.6757 5.9404 21.6295 5.59262C23.1003 5.36475 24.5504 5.36475 26.0212 5.36475C26.9767 5.35796 27.9316 5.41332 28.8799 5.53047C28.9732 5.56345 29.073 5.57369 29.171 5.56033C29.269 5.54698 29.3624 5.51041 29.4435 5.45368C29.5245 5.39695 29.5909 5.32169 29.637 5.23416C29.6831 5.14663 29.7076 5.04936 29.7085 4.95044C29.7202 4.86872 29.7154 4.7855 29.6945 4.70564C29.6736 4.62579 29.6371 4.55089 29.5869 4.48532C29.5368 4.41975 29.4741 4.36483 29.4025 4.32376C29.3309 4.28269 29.2518 4.25629 29.1699 4.24611C28.1283 4.07953 27.0759 3.98952 26.0212 3.97681C24.5089 3.97681 23.0174 3.97681 21.5052 4.12182C18.282 4.37808 15.1621 5.37787 12.3903 7.0427C9.63259 8.69936 7.2144 10.8645 5.2642 13.4231C3.41913 15.9443 2.08893 18.8044 1.3496 21.8399C0.610272 24.8754 0.476311 28.0269 0.955372 31.1142C1.74941 37.336 4.80147 43.0494 9.5316 47.1687C11.437 48.7369 13.6038 49.957 15.9327 50.7732C18.2196 51.6045 20.611 52.1134 23.0381 52.2854C24.9667 52.4123 26.9032 52.3429 28.8178 52.0783C30.7309 51.8262 32.6124 51.3749 34.4317 50.7318C34.6102 50.6713 34.7575 50.5424 34.841 50.3734C34.9245 50.2044 34.9375 50.0092 34.8771 49.8306C34.8166 49.6521 34.6877 49.5048 34.5187 49.4213C34.3497 49.3378 34.1545 49.3248 33.9759 49.3853Z" fill="black"/>
<path d="M48.9119 36.4381C48.4576 36.1162 47.9402 35.8944 47.3938 35.7873C46.8475 35.6802 46.2846 35.6902 45.7424 35.8166C45.2219 35.9791 44.7514 36.2714 44.3752 36.666C43.9773 37.0599 43.6166 37.4899 43.298 37.9503C43.1713 37.6346 43.0188 37.3297 42.8422 37.0389C42.5516 36.4899 42.1233 36.0259 41.5993 35.6924C40.9974 35.3453 40.3113 35.1713 39.6167 35.1895C38.9222 35.2078 38.2462 35.4177 37.6634 35.7959C37.081 36.1708 36.5918 36.6735 36.2329 37.2658C35.8739 37.858 35.6547 38.5243 35.5918 39.214C35.8403 41.0542 36.5532 42.8008 37.6634 44.2893C38.3963 45.5414 39.1986 46.7517 40.0664 47.9145C40.226 48.1505 40.4381 48.3462 40.6861 48.4864C40.9341 48.6265 41.2112 48.7073 41.4957 48.7224C43.9476 47.7063 46.1468 46.1648 47.9383 44.2064C49.2699 42.9192 50.1431 41.2311 50.4241 39.4004C50.4491 38.8181 50.323 38.2393 50.058 37.7202C49.793 37.2011 49.3982 36.7594 48.9119 36.4381ZM46.3846 42.6528C45.0148 44.0261 43.4515 45.1916 41.7443 46.1123C40.679 44.7886 39.6899 43.4053 38.782 41.9692C38.1878 41.184 37.7709 40.2793 37.5598 39.3176C37.5748 38.9118 37.6813 38.5148 37.8715 38.156C38.0616 37.7973 38.3304 37.4862 38.6577 37.246C38.9778 36.9987 39.3599 36.8447 39.762 36.8008C40.1641 36.7569 40.5705 36.825 40.9364 36.9974C41.2569 37.1856 41.527 37.4486 41.7236 37.7639C42.0841 38.3457 42.3826 38.9636 42.6144 39.6076C42.6414 39.7326 42.7051 39.8467 42.7973 39.9353C42.8896 40.0239 43.0062 40.0829 43.1322 40.1048C43.733 40.1048 44.458 38.779 45.2038 38.0332C45.4467 37.7387 45.7603 37.5107 46.1153 37.3703C46.4257 37.3278 46.7416 37.3481 47.044 37.43C47.3465 37.5118 47.6294 37.6535 47.8761 37.8468C48.0988 38.0129 48.2749 38.2336 48.3873 38.4876C48.4998 38.7416 48.5449 39.0203 48.5183 39.2969C48.1723 40.6097 47.4266 41.7825 46.3846 42.6528Z" fill="black"/>
<path d="M30.848 5.88261C34.4224 6.49789 37.7726 8.04084 40.5635 10.3572C41.6561 11.2627 42.6618 12.2683 43.5673 13.3609C44.9347 14.9887 46.0137 16.8383 46.7575 18.8298C47.5069 20.6466 48.0422 22.5445 48.3526 24.4852C48.6598 26.4443 48.7846 28.4276 48.7255 30.4098C48.7194 30.5734 48.7761 30.7332 48.8839 30.8564C48.9917 30.9796 49.1425 31.057 49.3055 31.0727C49.3871 31.0783 49.4691 31.0678 49.5467 31.0416C49.6242 31.0155 49.6959 30.9743 49.7575 30.9204C49.819 30.8665 49.8694 30.801 49.9056 30.7276C49.9418 30.6542 49.9631 30.5743 49.9684 30.4927C50.1974 28.4291 50.239 26.3491 50.0927 24.278C49.9392 22.1713 49.5572 20.0875 48.9533 18.0633C48.17 15.7892 46.9686 13.6815 45.411 11.8487C44.3841 10.6425 43.2156 9.56442 41.9308 8.63777C38.7457 6.31523 34.9984 4.88496 31.0758 4.49467C30.9832 4.48312 30.8893 4.4901 30.7994 4.51518C30.7095 4.54026 30.6255 4.58295 30.5523 4.64077C30.479 4.69859 30.418 4.77039 30.3727 4.852C30.3275 4.9336 30.2989 5.02339 30.2886 5.11613C30.2696 5.29061 30.3164 5.46591 30.4199 5.60769C30.5233 5.74947 30.676 5.84751 30.848 5.88261Z" fill="black"/>
<path d="M12.9703 20.28C10.8988 21.5229 9.63512 24.796 12.0174 26.4947C12.5123 26.78 13.0592 26.9635 13.626 27.0346C14.1928 27.1056 14.7681 27.0627 15.3181 26.9083C15.868 26.7539 16.3816 26.4912 16.8287 26.1356C17.2757 25.78 17.6472 25.3386 17.9213 24.8374C18.2963 23.9969 18.3472 23.0474 18.0642 22.1717C17.7812 21.2959 17.1843 20.5557 16.3884 20.0936C15.8488 19.8352 15.2529 19.7168 14.6555 19.7494C14.0581 19.782 13.4786 19.9645 12.9703 20.28Z" fill="black"/>
<path d="M38.3676 22.1858C38.3826 22.2762 38.4155 22.3628 38.4645 22.4402C38.5136 22.5177 38.5777 22.5845 38.653 22.6367C38.7284 22.6889 38.8135 22.7254 38.9033 22.744C38.993 22.7626 39.0856 22.763 39.1756 22.7451C39.3595 22.7146 39.5238 22.6125 39.6325 22.461C39.7413 22.3096 39.7855 22.1212 39.7556 21.9372C39.6808 21.1909 39.4221 20.4749 39.0028 19.8531C38.5834 19.2312 38.0164 18.7231 37.3526 18.3741C36.0762 17.7206 34.6301 17.4748 33.2095 17.6698C31.9689 17.9697 30.8359 18.608 29.9364 19.5135C29.0445 20.3939 28.4691 21.5448 28.2999 22.7865C28.2849 22.8668 28.2859 22.9492 28.3028 23.0291C28.3197 23.1089 28.3522 23.1847 28.3983 23.252C28.4916 23.388 28.635 23.4813 28.7971 23.5116C28.9591 23.5418 29.1266 23.5064 29.2626 23.4131C29.3299 23.367 29.3875 23.308 29.432 23.2396C29.4765 23.1712 29.5072 23.0946 29.5221 23.0144C29.8563 22.1624 30.4508 21.4375 31.2208 20.9428C31.9142 20.4122 32.7365 20.0761 33.6031 19.9692C34.194 19.8859 34.7937 19.8859 35.3846 19.9692C35.9643 20.01 36.529 20.1724 37.0419 20.4457C37.6896 20.8353 38.1639 21.4578 38.3676 22.1858Z" fill="black"/>
<path d="M33.0644 35.5681C33.3504 35.1085 33.5341 34.5928 33.603 34.0559C33.6604 33.4342 33.5765 32.8076 33.3577 32.2229C33.1389 31.6382 32.7908 31.1105 32.3393 30.6792C31.9139 30.2241 31.3844 29.8789 30.7964 29.6732C30.2083 29.4676 29.5791 29.4076 28.9627 29.4984C28.2217 29.6379 27.5168 29.9269 26.8912 30.3478C26.0631 30.9362 25.3176 31.6329 24.6746 32.4193C24.2247 32.9204 23.8028 33.446 23.4109 33.9937C22.8519 34.7816 22.3333 35.5975 21.8573 36.4382C21.8047 36.5075 21.7672 36.587 21.7474 36.6717C21.7275 36.7564 21.7256 36.8443 21.7418 36.9298C21.7581 37.0153 21.7921 37.0964 21.8416 37.1679C21.8912 37.2394 21.9552 37.2997 22.0296 37.3449C22.1039 37.39 22.1869 37.4191 22.2732 37.4302C22.3595 37.4413 22.4471 37.4341 22.5305 37.4092C22.6138 37.3843 22.691 37.3421 22.757 37.2855C22.8231 37.2288 22.8765 37.1589 22.9138 37.0803C23.3419 36.4174 23.7976 35.7753 24.281 35.1538C24.7494 34.5506 25.2692 33.9891 25.8347 33.4758C26.3421 32.9599 26.9048 32.5014 27.5126 32.1086C28.0367 31.7658 28.6316 31.5462 29.2527 31.4664C29.5367 31.4687 29.8164 31.5351 30.0711 31.6606C30.3258 31.7862 30.5488 31.9676 30.7235 32.1915C30.912 32.3975 31.0568 32.6395 31.1494 32.9029C31.242 33.1664 31.2803 33.4458 31.2621 33.7244C31.2265 33.9999 31.1113 34.2591 30.9307 34.4702C30.7032 34.7774 30.4465 35.0618 30.1642 35.3195C29.9118 35.4916 29.6697 35.6784 29.4392 35.8788C29.2779 36.0178 29.1537 36.1947 29.0778 36.3936C29.0019 36.5925 28.9765 36.8071 29.0041 37.0182C29.0902 37.4216 29.2595 37.8026 29.5013 38.1368C29.812 38.5926 30.3092 39.0483 30.5578 39.4212C30.8527 39.8597 31.0765 40.3421 31.2207 40.8506C31.3663 41.3335 31.4224 41.839 31.3864 42.3421C31.3386 43.0202 31.024 43.6517 30.5114 44.0982C29.9989 44.5447 29.3302 44.7699 28.652 44.7244C27.8686 44.7231 27.097 44.5344 26.4014 44.174C25.7059 43.8136 25.1067 43.292 24.6539 42.6528C24.555 42.4935 24.3968 42.38 24.2143 42.3372C24.0317 42.2945 23.8396 42.326 23.6802 42.4249C23.5209 42.5238 23.4074 42.682 23.3647 42.8646C23.3219 43.0472 23.3535 43.2392 23.4524 43.3986C24.1338 44.4535 25.1017 45.2924 26.2427 45.817C27.3837 46.3417 28.6505 46.5303 29.8949 46.3609C30.8109 46.2088 31.6538 45.7663 32.2991 45.0986C32.9444 44.4309 33.3579 43.5735 33.4787 42.6528C33.6441 41.8673 33.6441 41.056 33.4787 40.2705C33.305 39.5333 33.0036 38.8322 32.5879 38.199L31.8007 37.1632C32.3033 36.7013 32.7297 36.163 33.0644 35.5681Z" fill="black"/>
</g>
<defs>
<clipPath id="clip0_2016_10">
<rect width="49.7173" height="49.7173" fill="white" transform="translate(0.706787 3.29321)"/>
</clipPath>
</defs>
</svg>
