<?xml version="1.0" encoding="UTF-8" standalone="no"?><svg width="56" height="56" viewBox="0 0 56 56" fill="none" xmlns="http://www.w3.org/2000/svg">
<path fill-rule="evenodd" clip-rule="evenodd" d="M17.9814 32.4692C18.5384 32.5414 19.1023 32.5414 19.6593 32.4692C20.2024 32.3895 20.7366 32.2576 21.2544 32.0756C22.4148 31.6334 23.5257 31.0711 24.5689 30.3976C24.7252 30.3175 24.8447 30.1803 24.9026 30.0144C24.9604 29.8486 24.9522 29.6668 24.8796 29.5069C24.7959 29.354 24.6585 29.2377 24.494 29.1803C24.3294 29.1229 24.1495 29.1286 23.9889 29.1961C22.8888 29.5823 21.7597 29.8802 20.6122 30.0869C19.9277 30.2272 19.2362 30.331 18.5407 30.3976H17.5049C18.7138 28.8138 19.4403 26.915 19.5972 24.9287C20.0115 20.7856 17.9607 16.6425 13.1547 16.2282C11.6101 16.2191 10.0855 16.5767 8.70616 17.2718C7.32683 17.9669 6.13223 18.9795 5.2206 20.2263C4.20235 21.4212 3.59444 22.9114 3.4863 24.4775C3.37816 26.0437 3.77549 27.6033 4.61985 28.9268C5.15513 29.7234 5.86322 30.3891 6.69141 30.8741L7.4786 31.2884C5.88956 32.9131 4.68602 34.8741 3.95696 37.0266C3.41268 38.6955 3.09904 40.4309 3.02476 42.1848C2.93225 44.743 3.09882 47.3041 3.52193 49.8288C3.52691 49.9225 3.5511 50.0141 3.59302 50.098C3.63493 50.1819 3.69366 50.2563 3.76555 50.3165C3.83744 50.3768 3.92096 50.4216 4.01091 50.4481C4.10086 50.4747 4.19532 50.4825 4.28841 50.471C4.45689 50.4502 4.61096 50.3655 4.71888 50.2345C4.8268 50.1034 4.88033 49.936 4.86844 49.7666C4.74057 47.2925 4.81678 44.8121 5.09631 42.3505C5.27702 40.7736 5.58883 39.2146 6.02851 37.6895C6.60809 35.5626 7.60058 33.5706 8.9494 31.827C9.50872 31.972 10.068 32.117 10.6274 32.2206C10.7784 32.2508 10.9353 32.2198 11.0636 32.1343C11.1918 32.0488 11.2808 31.9159 11.311 31.7648C11.3412 31.6138 11.3101 31.4569 11.2247 31.3287C11.1392 31.2005 11.0063 31.1115 10.8552 31.0812C6.71212 30.1283 5.96636 28.2018 5.94565 28.1396C5.35676 27.0799 5.12538 25.8585 5.28585 24.6568C5.44632 23.4552 5.9901 22.3373 6.83642 21.4692C7.55994 20.5058 8.49872 19.725 9.57778 19.1891C10.6568 18.6531 11.8463 18.377 13.0511 18.3826C16.5934 18.5898 18.0021 21.6764 17.8156 24.7423C17.8366 26.3457 17.3254 27.9108 16.3621 29.1927C15.3988 30.4746 14.0377 31.401 12.4918 31.827C12.3215 31.8575 12.1691 31.9514 12.0653 32.0898C11.9615 32.2281 11.914 32.4007 11.9324 32.5728C11.9629 32.7416 12.0576 32.892 12.1967 32.9925C12.3358 33.0929 12.5084 33.1355 12.6782 33.1114C13.7989 32.9504 14.8607 32.5086 15.7648 31.827C16.4666 32.1529 17.2141 32.3695 17.9814 32.4692Z" fill="black"/>
<path fill-rule="evenodd" clip-rule="evenodd" d="M24.9211 33.2769C24.0754 34.0772 23.1365 34.7727 22.1245 35.3485C21.1231 35.9025 20.0681 36.3536 18.9757 36.695C18.1352 36.9019 17.3055 37.1508 16.4899 37.4407C15.9121 37.6535 15.4231 38.0549 15.1019 38.5801C14.6354 39.7214 14.4369 40.9545 14.5219 42.1846C14.5219 44.774 15.3712 47.9642 15.4955 49.6008C15.4981 49.6869 15.518 49.7717 15.5541 49.85C15.5902 49.9283 15.6416 49.9986 15.7054 50.0566C15.7692 50.1146 15.844 50.1591 15.9254 50.1876C16.0068 50.216 16.0931 50.2278 16.1791 50.2222C16.2635 50.2195 16.3465 50.2003 16.4234 50.1655C16.5002 50.1307 16.5695 50.0811 16.6273 50.0196C16.685 49.958 16.73 49.8857 16.7597 49.8067C16.7895 49.7277 16.8034 49.6437 16.8006 49.5593C16.8006 48.1507 16.5727 45.5612 16.5727 43.1789C16.5727 37.8136 17.8364 39.3259 19.7422 38.5801C20.8807 38.0426 21.9691 37.4048 22.9945 36.6743C24.0382 35.9323 24.9847 35.0624 25.8119 34.0848C25.8697 34.0324 25.9159 33.9684 25.9475 33.8971C25.9791 33.8257 25.9954 33.7486 25.9954 33.6705C25.9954 33.5925 25.9791 33.5153 25.9475 33.4439C25.9159 33.3726 25.8697 33.3086 25.8119 33.2562C25.7559 33.1922 25.6866 33.1413 25.6088 33.107C25.531 33.0728 25.4466 33.056 25.3616 33.058C25.2766 33.06 25.1931 33.0806 25.117 33.1185C25.0409 33.1563 24.974 33.2104 24.9211 33.2769Z" fill="black"/>
<path fill-rule="evenodd" clip-rule="evenodd" d="M45.7816 30.0248C44.7969 30.1285 43.804 30.1285 42.8193 30.0248C39.8777 29.6105 35.8796 27.0418 37.2882 22.8365C37.7631 21.6085 38.5239 20.5113 39.5073 19.6359C40.4908 18.7605 41.6688 18.1321 42.9436 17.8027C44.2895 17.3949 45.7317 17.4372 47.0513 17.9232C48.371 18.4092 49.4962 19.3123 50.2561 20.4957C50.6336 21.101 50.887 21.7752 51.0017 22.4793C51.1164 23.1833 51.0902 23.9031 50.9244 24.5969C50.7587 25.2907 50.4568 25.9447 50.0362 26.5209C49.6157 27.097 49.0849 27.5839 48.4746 27.9533C48.3334 28.0535 48.2371 28.2049 48.2061 28.3753C48.1751 28.5456 48.212 28.7213 48.3089 28.8648C48.3546 28.9393 48.4155 29.0034 48.4876 29.0528C48.5598 29.1022 48.6415 29.1358 48.7276 29.1514C48.8136 29.1671 48.902 29.1644 48.9869 29.1435C49.0718 29.1227 49.1513 29.0842 49.2204 29.0305C50.0154 28.585 50.7139 27.9859 51.2754 27.268C51.8369 26.5502 52.2501 25.7279 52.491 24.849C52.732 23.9701 52.7958 23.052 52.6789 22.1482C52.5619 21.2444 52.2665 20.3728 51.8098 19.5842C50.8863 17.9859 49.465 16.7339 47.763 16.0194C46.061 15.3049 44.1718 15.1673 42.3842 15.6275C40.7615 16.0515 39.2681 16.8687 38.0361 18.0067C36.8041 19.1448 35.8713 20.5688 35.3202 22.1529C34.9742 23.2123 34.9126 24.3441 35.1416 25.4348C35.3707 26.5255 35.8823 27.5369 36.6253 28.3676C36.2834 28.2478 35.951 28.1023 35.631 27.9326C34.5489 27.2123 33.6598 26.2379 33.0415 25.0945C32.5342 24.1814 31.8917 23.3503 31.1357 22.6294C30.5288 22.0199 29.7769 21.5748 28.9508 21.3356C28.1246 21.0964 27.2512 21.0712 26.4126 21.2622C25.7253 21.5526 25.1212 22.0096 24.6547 22.5919C24.1882 23.1741 23.8739 23.8633 23.7403 24.5974C23.6174 25.0659 23.6174 25.5582 23.7403 26.0267C23.9589 26.5989 24.2078 27.159 24.486 27.7047C24.7645 28.2413 25.0758 28.7601 25.4182 29.2583C26.2695 30.5651 27.2707 31.7679 28.4013 32.8421C29.544 33.9197 30.826 34.8394 32.2129 35.5766C33.3231 36.0435 34.4571 36.4515 35.6103 36.7988C35.9547 36.9223 36.2819 37.0894 36.5839 37.296C36.798 38.0609 36.9367 38.8449 36.9982 39.6368C37.1533 40.8734 37.2156 42.1198 37.1846 43.3656C37.1382 45.2715 36.9861 47.1734 36.7289 49.0624C36.7042 49.2162 36.7416 49.3736 36.8329 49.4998C36.9242 49.6261 37.0619 49.7109 37.2157 49.7356C37.3695 49.7604 37.5269 49.723 37.6532 49.6317C37.7794 49.5404 37.8642 49.4027 37.889 49.2488C38.1997 47.343 38.5104 45.3957 38.6347 43.4485C38.7278 42.1312 38.7278 40.8091 38.6347 39.4918C38.6103 38.6378 38.5273 37.7864 38.3861 36.9438C38.2988 36.5762 38.1125 36.2395 37.8475 35.9702C37.392 35.5813 36.8827 35.2604 36.3353 35.0173C35.2995 34.5408 34.0773 34.2301 33.1865 33.7329C31.9828 33.0451 30.8694 32.2101 29.8721 31.247C28.8765 30.276 27.9812 29.2072 27.1998 28.0568C26.9097 27.6011 26.6404 27.1454 26.3918 26.6689C25.5218 25.0945 25.729 25.1774 25.8532 24.7424C25.9062 24.4142 26.0374 24.1036 26.2357 23.8367C26.434 23.5699 26.6936 23.3548 26.9926 23.2094C27.6969 22.9401 28.6291 23.2094 29.9549 24.1416C31.2807 25.0738 32.2336 27.9118 34.8231 29.2791C36.0463 29.9013 37.4083 30.2008 38.7797 30.1491C38.9797 30.2787 39.1873 30.3963 39.4012 30.5013C40.4209 30.9633 41.5157 31.237 42.6328 31.3092C43.7053 31.3638 44.7805 31.3153 45.8437 31.1642C45.9194 31.1566 45.9927 31.1337 46.0591 31.0969C46.1256 31.0601 46.1839 31.0101 46.2304 30.95C46.277 30.8899 46.3108 30.821 46.3298 30.7474C46.3487 30.6738 46.3525 30.5971 46.3409 30.522C46.3303 30.3828 46.266 30.2532 46.1617 30.1604C46.0573 30.0677 45.9211 30.019 45.7816 30.0248Z" fill="black"/>
<path fill-rule="evenodd" clip-rule="evenodd" d="M47.646 29.1753C47.5936 29.1092 47.5275 29.0554 47.4522 29.0175C47.3769 28.9796 47.2942 28.9586 47.2099 28.9559C47.1257 28.9532 47.0419 28.9689 46.9643 29.0019C46.8867 29.0349 46.8173 29.0844 46.7608 29.147C46.7043 29.2096 46.6622 29.2837 46.6373 29.3643C46.6124 29.4448 46.6053 29.5298 46.6166 29.6133C46.6279 29.6969 46.6573 29.7769 46.7027 29.848C46.7481 29.919 46.8084 29.9793 46.8795 30.0246C48.6014 31.9733 49.6857 34.4022 49.9868 36.985C50.2568 38.5328 50.4229 40.0968 50.484 41.6668C50.5609 44.0989 50.4986 46.5335 50.2976 48.9586C50.2859 49.0431 50.2913 49.129 50.3132 49.2113C50.3351 49.2937 50.3732 49.3709 50.4253 49.4383C50.4773 49.5058 50.5423 49.5623 50.6164 49.6044C50.6905 49.6465 50.7723 49.6735 50.8569 49.6837C51.0267 49.7078 51.1993 49.6652 51.3384 49.5648C51.4775 49.4643 51.5722 49.3139 51.6026 49.1451C52.1341 46.6836 52.4597 44.1822 52.5763 41.6668C52.6445 39.9418 52.4914 38.2153 52.1205 36.5293C51.5021 33.6431 49.925 31.0511 47.646 29.1753Z" fill="black"/>
<path fill-rule="evenodd" clip-rule="evenodd" d="M17.8157 12.4579C17.9161 12.8074 18.0478 13.1471 18.2092 13.4729C18.3543 13.7942 18.5204 14.1056 18.7064 14.4051C19.1831 15.1309 19.7092 15.823 20.2808 16.4767C20.3588 16.6072 20.4834 16.7034 20.6295 16.7457C20.7756 16.788 20.9323 16.7733 21.068 16.7045C21.2025 16.6303 21.302 16.5057 21.3447 16.3581C21.3875 16.2105 21.3699 16.052 21.2959 15.9174C21.0266 15.1094 20.8815 14.3223 20.6122 13.5351C20.4956 13.2018 20.3572 12.8766 20.1979 12.5614C20.0527 12.2469 19.8866 11.9424 19.7008 11.65C19.2657 10.9249 18.7893 10.2413 18.3128 9.5784C18.2357 9.42386 18.1014 9.30551 17.9383 9.24853C17.7753 9.19156 17.5965 9.20047 17.4399 9.27335C17.2833 9.34624 17.1614 9.47735 17.1 9.63879C17.0386 9.80022 17.0427 9.97923 17.1113 10.1377C17.3599 10.8835 17.5256 11.6707 17.8157 12.4579Z" fill="black"/>
<path fill-rule="evenodd" clip-rule="evenodd" d="M27.1997 12.9551C27.1996 13.1054 27.2579 13.2499 27.3622 13.3581C27.4666 13.4663 27.6088 13.5298 27.759 13.5351C27.8359 13.5408 27.9131 13.5306 27.9858 13.5051C28.0585 13.4795 28.1252 13.4392 28.1816 13.3867C28.238 13.3342 28.283 13.2706 28.3136 13.1999C28.3443 13.1292 28.36 13.0529 28.3598 12.9758C28.5462 12.1058 28.7741 11.2979 28.8777 10.4071C28.8989 10.0414 28.8989 9.67483 28.8777 9.30917C28.8977 8.94347 28.8977 8.57694 28.8777 8.21124C28.8777 7.3619 28.6291 6.53328 28.5048 5.66323C28.5051 5.49437 28.441 5.33174 28.3255 5.20855C28.21 5.08536 28.0519 5.01089 27.8833 5.00033C27.7973 4.99756 27.7115 5.01211 27.6312 5.04314C27.5509 5.07417 27.4776 5.12103 27.4158 5.18094C27.3539 5.24085 27.3048 5.31259 27.2712 5.39188C27.2377 5.47118 27.2204 5.55641 27.2204 5.64252C27.0754 6.51257 26.9097 7.34119 26.8268 8.21124C26.8063 8.57693 26.8063 8.94348 26.8268 9.30917C26.8065 9.67486 26.8065 10.0414 26.8268 10.4071C26.8683 11.2771 27.0754 12.085 27.1997 12.9551Z" fill="black"/>
<path fill-rule="evenodd" clip-rule="evenodd" d="M34.7402 15.8139C35.35 15.3758 35.9248 14.8909 36.4596 14.3638C36.6688 14.1331 36.856 13.8834 37.0189 13.618C37.1846 13.3694 37.3296 13.1001 37.4746 12.8308C37.7854 12.1679 38.0339 11.5258 38.324 10.8836C38.4313 10.7468 38.4825 10.5743 38.4671 10.4011C38.4517 10.2279 38.3709 10.0671 38.2411 9.95138C38.0976 9.85451 37.9219 9.81762 37.7516 9.84859C37.5813 9.87955 37.4298 9.97593 37.3296 10.1171C36.791 10.635 36.2938 11.1114 35.7967 11.6708C35.6102 11.8986 35.4238 12.1265 35.2581 12.3751C35.0567 12.6292 34.8765 12.8994 34.7195 13.183C34.4087 13.8252 34.2016 14.4674 33.8701 15.0888C33.817 15.1455 33.7758 15.2123 33.749 15.2852C33.7221 15.3581 33.7102 15.4356 33.7139 15.5132C33.7176 15.5908 33.7369 15.6669 33.7705 15.7369C33.8042 15.8069 33.8516 15.8694 33.9099 15.9208C33.9682 15.9721 34.0362 16.0112 34.1099 16.0358C34.1836 16.0604 34.2614 16.0699 34.3389 16.0638C34.4163 16.0577 34.4917 16.0361 34.5607 16.0003C34.6296 15.9644 34.6907 15.9152 34.7402 15.8553V15.8139Z" fill="black"/>
</svg>
