<?xml version="1.0" encoding="UTF-8" standalone="no"?><svg width="24" height="24" viewBox="0 0 24 24" fill="none" xmlns="http://www.w3.org/2000/svg">
    <path d="M3.13631 10.8086C8.68908 8.38935 12.3918 6.79443 14.2445 6.02384C19.5342 3.82366 20.6333 3.44147 21.3498 3.42885C21.5073 3.42607 21.8596 3.46512 22.0879 3.6503C22.2806 3.80666 22.3336 4.01788 22.3589 4.16613C22.3843 4.31438 22.4159 4.65209 22.3908 4.91597C22.1041 7.92785 20.8638 15.2369 20.2328 18.6102C19.9658 20.0376 19.44 20.5162 18.9311 20.5631C17.8249 20.6649 16.985 19.8321 15.9136 19.1298C14.2372 18.0309 13.2901 17.3468 11.6629 16.2744C9.78226 15.0351 11.0014 14.354 12.0731 13.2408C12.3536 12.9495 17.2272 8.51658 17.3216 8.11444C17.3334 8.06414 17.3443 7.87667 17.2329 7.77768C17.1216 7.67869 16.9572 7.71254 16.8386 7.73946C16.6704 7.77762 13.9923 9.54777 8.80417 13.0499C8.04399 13.5719 7.35544 13.8262 6.73853 13.8129C6.05843 13.7982 4.75019 13.4284 3.77765 13.1122C2.5848 12.7245 1.63674 12.5195 1.71929 11.861C1.76229 11.518 2.23463 11.1672 3.13631 10.8086Z" fill="black"/>
</svg>
