<?xml version="1.0" encoding="UTF-8" standalone="no"?><svg width="56" height="56" viewBox="0 0 56 56" fill="none" xmlns="http://www.w3.org/2000/svg">
    <path fill-rule="evenodd" clip-rule="evenodd" d="M38.3834 42.7733C36.8327 43.3197 35.3234 43.9774 33.8674 44.7412C33.4945 44.9691 33.1217 45.2384 32.7488 45.5077C32.66 45.4163 32.577 45.3194 32.5002 45.2177C31.5343 44.2675 30.4721 43.4205 29.3307 42.6904C29.2613 42.6292 29.1806 42.5822 29.0931 42.5522C29.0056 42.5222 28.913 42.5098 28.8207 42.5155C28.7283 42.5213 28.638 42.5452 28.555 42.5859C28.4719 42.6265 28.3976 42.6832 28.3364 42.7525C28.2752 42.8219 28.2282 42.9027 28.1982 42.9902C28.1682 43.0777 28.1557 43.1703 28.1615 43.2626C28.1673 43.3549 28.1912 43.4452 28.2318 43.5283C28.2725 43.6114 28.3291 43.6857 28.3985 43.7469C29.165 44.7205 29.7865 45.8184 30.4701 46.8542L30.6565 47.1442L30.4701 47.31C29.3166 48.4818 28.2568 49.7425 27.3006 51.0802C27.2235 51.1537 27.1621 51.2421 27.1202 51.34C27.0783 51.4379 27.0567 51.5433 27.0567 51.6499C27.0567 51.7564 27.0783 51.8618 27.1202 51.9597C27.1621 52.0576 27.2235 52.146 27.3006 52.2195C27.3738 52.2934 27.4609 52.3521 27.5569 52.3922C27.6529 52.4322 27.7559 52.4528 27.8599 52.4528C27.9639 52.4528 28.0669 52.4322 28.1629 52.3922C28.2589 52.3521 28.346 52.2934 28.4192 52.2195C29.0821 51.5981 29.7657 51.0388 30.4908 50.4794C31.2158 49.9201 31.6094 49.6508 32.1687 49.2572L32.3552 49.4851C33.1838 50.5001 34.0331 51.4531 34.841 52.4474C34.8968 52.5358 34.9695 52.6124 35.0548 52.6727C35.1402 52.7331 35.2366 52.776 35.3385 52.7991C35.4405 52.8222 35.546 52.8249 35.649 52.8073C35.752 52.7896 35.8506 52.7518 35.939 52.696C36.0274 52.6402 36.1039 52.5676 36.1643 52.4822C36.2246 52.3969 36.2676 52.3005 36.2907 52.1985C36.3137 52.0966 36.3165 51.9911 36.2988 51.888C36.2811 51.785 36.2433 51.6865 36.1876 51.5981C35.649 50.4173 35.1104 49.2158 34.4475 48.035L34.2196 47.7036L34.7168 47.3514C36.084 46.2742 37.3891 45.1348 38.8599 44.099C38.9432 44.0573 39.0175 43.9995 39.0784 43.9288C39.1392 43.8582 39.1854 43.7762 39.2143 43.6875C39.2432 43.5989 39.2543 43.5054 39.2467 43.4124C39.2392 43.3195 39.2134 43.229 39.1706 43.1461C39.1002 43.0047 38.9843 42.891 38.8416 42.8234C38.6988 42.7558 38.5374 42.7381 38.3834 42.7733Z" fill="black"/>
    <path fill-rule="evenodd" clip-rule="evenodd" d="M52.2836 31.2554C52.3665 31.2133 52.4404 31.1552 52.5009 31.0844C52.5614 31.0137 52.6074 30.9318 52.6363 30.8433C52.6651 30.7548 52.6763 30.6615 52.6691 30.5687C52.6619 30.4759 52.6365 30.3855 52.5943 30.3025C52.5521 30.2195 52.494 30.1457 52.4233 30.0852C52.3526 30.0246 52.2707 29.9786 52.1822 29.9498C52.0937 29.9209 52.0004 29.9098 51.9076 29.917C51.8148 29.9242 51.7244 29.9496 51.6414 29.9918C50.0861 30.5678 48.5765 31.2603 47.1254 32.0633C46.733 32.2996 46.3528 32.5554 45.986 32.8298C45.9145 32.724 45.8311 32.6267 45.7375 32.5398C44.7781 31.5702 43.7153 30.7088 42.568 29.9711C42.436 29.8395 42.2572 29.7656 42.0708 29.7656C41.8844 29.7656 41.7057 29.8395 41.5736 29.9711C41.5059 30.035 41.452 30.112 41.4151 30.1975C41.3782 30.283 41.3592 30.3751 41.3592 30.4682C41.3592 30.5613 41.3782 30.6535 41.4151 30.7389C41.452 30.8244 41.5059 30.9015 41.5736 30.9654C42.3608 31.9597 42.9823 33.037 43.6452 34.0934L43.8523 34.3835L43.6452 34.5492C42.5382 35.7012 41.5267 36.9413 40.6207 38.2573C40.5436 38.3308 40.4823 38.4192 40.4403 38.5171C40.3984 38.615 40.3768 38.7204 40.3768 38.8269C40.3768 38.9335 40.3984 39.0389 40.4403 39.1368C40.4823 39.2347 40.5436 39.3231 40.6207 39.3966C40.7721 39.5472 40.9769 39.6317 41.1904 39.6317C41.4039 39.6317 41.6087 39.5472 41.7601 39.3966C42.423 38.7752 43.0859 38.2158 43.8316 37.6565C44.5774 37.0972 44.9503 36.8279 45.5096 36.4136L45.696 36.6622C46.5247 37.6772 47.3947 38.7337 48.1819 39.6245C48.2966 39.8006 48.4754 39.9251 48.6804 39.9715C48.8854 40.0179 49.1004 39.9826 49.2798 39.8731C49.4554 39.7582 49.5808 39.5809 49.6308 39.3772C49.6808 39.1734 49.6516 38.9583 49.5491 38.7752C48.9898 37.5944 48.4512 36.3929 47.7883 35.2121C47.7883 35.2121 47.6433 35.0049 47.5811 34.8806L48.0576 34.5285C49.4248 33.4305 50.7506 32.2912 52.2836 31.2554Z" fill="black"/>
    <path fill-rule="evenodd" clip-rule="evenodd" d="M41.4908 28.811C41.7781 28.7133 42.0255 28.5241 42.1951 28.2724C42.3815 28.0445 42.6508 27.4023 42.7337 27.2987C42.8166 27.1952 43.0444 26.6358 43.1687 26.2837C43.4076 25.605 43.6082 24.9133 43.7695 24.2121L44.0595 23.7564C44.2675 22.997 44.2675 22.1956 44.0595 21.4362C43.8109 20.1104 43.1894 18.4532 43.0652 17.8317C42.6923 16.4645 42.423 15.0559 42.0708 13.6886C41.8429 12.7564 41.5944 11.8449 41.3251 10.9127C40.7036 8.5719 40.0407 6.27247 39.2535 3.97305C39.2047 3.79028 39.0864 3.63383 38.9238 3.53707C38.7613 3.44032 38.5674 3.41092 38.3834 3.45516C38.2182 3.5165 38.0743 3.62443 37.9691 3.76589C37.9775 3.68405 37.9689 3.60136 37.9439 3.52297C37.919 3.44457 37.8782 3.37214 37.8241 3.31015C37.7633 3.22568 37.6855 3.15486 37.5957 3.10226C37.5059 3.04966 37.4061 3.01644 37.3027 3.00473C37.1993 2.99303 37.0946 3.00309 36.9953 3.03429C36.896 3.06548 36.8043 3.11711 36.7262 3.18586C35.4833 4.07662 34.2196 4.94668 32.9353 5.7753C31.1537 6.95608 29.2686 8.03329 27.4456 9.15193C26.2234 9.89769 25.0219 10.7056 23.7997 11.4514C22.4544 12.2863 21.1543 13.1921 19.9052 14.1651C19.6896 14.3375 19.5187 14.5593 19.4069 14.8117C19.2951 15.0641 19.2458 15.3397 19.263 15.6152L18.1444 17.9975C17.9675 18.3835 17.8287 18.7859 17.7301 19.199C17.6702 19.4097 17.6597 19.6315 17.6992 19.847C17.7387 20.0625 17.8272 20.266 17.9579 20.4419C18.4443 20.9238 19.0217 21.3041 19.6566 21.5605C20.8717 21.9364 22.1205 22.1931 23.3854 22.327C23.4969 22.3686 23.6164 22.3844 23.7348 22.3731C23.8533 22.3619 23.9677 22.3239 24.0694 22.2621C24.1711 22.2003 24.2574 22.1163 24.3219 22.0163C24.3865 21.9163 24.4275 21.8029 24.4419 21.6848C24.501 21.4843 24.4801 21.2686 24.3835 21.0832C24.2869 20.8978 24.1222 20.757 23.924 20.6905C23.3025 20.4419 22.4946 20.0483 21.666 19.634C20.2781 18.9711 20.5681 19.3854 20.8374 16.7752L21.7696 16.9617C22.5568 17.1688 23.344 17.3967 24.1312 17.666C24.9183 17.9353 26.2027 18.4532 27.3421 18.8675C27.166 19.984 26.8384 21.0712 26.3684 22.0991C25.6247 23.7284 24.7373 25.2883 23.7168 26.7601C22.6604 28.4588 21.4381 30.1368 20.1745 31.8354C18.9626 33.4989 17.6626 35.0962 16.28 36.6207C14.4685 38.6782 12.3764 40.4704 10.0653 41.9446C9.89509 41.9653 9.73885 42.0492 9.62758 42.1796C9.5163 42.3101 9.45812 42.4776 9.46456 42.6489C9.46439 42.7423 9.48335 42.8347 9.52027 42.9205C9.55718 43.0062 9.61127 43.0835 9.67921 43.1476C9.74714 43.2116 9.82748 43.2611 9.91526 43.2929C10.003 43.3247 10.0964 43.3382 10.1896 43.3326C12.1482 43.3797 14.1077 43.2827 16.0521 43.0425C17.4026 42.914 18.7358 42.6432 20.0295 42.2346C21.7916 41.6077 23.4633 40.751 25.0012 39.6866C26.5232 38.6098 27.9137 37.3583 29.1443 35.9578C32.5471 31.8685 35.1475 27.1736 36.8091 22.1199L40.9522 23.9221L41.6358 24.1707C39.0049 27.1744 41.3665 26.6773 38.7563 25.8486C38.6626 25.7979 38.5597 25.7662 38.4536 25.7554C38.3476 25.7446 38.2404 25.755 38.1383 25.7858C38.0363 25.8166 37.9413 25.8673 37.859 25.935C37.7766 26.0026 37.7084 26.086 37.6584 26.1801C37.5676 26.3684 37.5513 26.584 37.6128 26.7837C37.6742 26.9835 37.8089 27.1526 37.9898 27.2573C38.6323 27.818 39.3259 28.3173 40.0614 28.7488C40.5154 28.9386 41.0221 28.9607 41.4908 28.811ZM35.7733 19.9447C35.6755 19.9048 35.5708 19.885 35.4652 19.8864C35.3596 19.8878 35.2554 19.9105 35.1588 19.953C35.0621 19.9955 34.975 20.0571 34.9027 20.1339C34.8303 20.2108 34.7741 20.3014 34.7375 20.4005C34.6638 20.601 34.6726 20.8226 34.7619 21.0167C34.8512 21.2108 35.0137 21.3617 35.214 21.4362C33.5503 25.2931 31.3765 28.9091 28.7507 32.1876C27.1684 34.1674 25.3452 35.942 23.3233 37.4701C21.9952 38.4851 20.5567 39.3468 19.0351 40.0388C17.9382 40.5357 16.7927 40.9175 15.6171 41.1781C14.9542 41.3439 14.2913 41.3646 13.5455 41.4682C15.6672 40.1547 17.6278 38.5974 19.3873 36.8279C20.9173 35.256 22.3039 33.5505 23.5304 31.7319C24.3313 30.534 25.0711 29.2964 25.747 28.0238C26.6833 26.3623 27.4735 24.6225 28.1085 22.8242C28.5472 21.5884 28.819 20.2995 28.9164 18.9918C28.9228 18.8494 28.8894 18.7081 28.8198 18.5837C28.7503 18.4592 28.6475 18.3567 28.5229 18.2875C28.5294 18.1942 28.5141 18.1007 28.4781 18.0144C28.4422 17.9281 28.3865 17.8513 28.3157 17.7903C27.1971 17.1896 26.0784 16.5888 24.9183 16.0502C24.2555 15.7188 23.5926 15.4287 22.8468 15.1594C23.9033 14.538 25.1255 13.9165 25.3534 13.7715C27.4249 12.3421 29.6829 10.9127 31.7545 9.3798C33.826 7.84685 35.8976 6.18961 37.8241 4.47022C37.9245 4.36613 37.996 4.23758 38.0313 4.09734C38.0129 4.18616 38.0129 4.27782 38.0313 4.36664C38.7149 7.66041 39.0878 10.9749 39.6471 14.2894C39.8957 15.7188 40.2271 17.1274 40.5586 18.5361L41.4908 21.6848L35.7733 19.9447Z" fill="black"/>
    <path fill-rule="evenodd" clip-rule="evenodd" d="M8.73946 14.1444C12.8826 15.3666 14.9541 13.1915 14.9541 10.1463C15.0192 9.12135 14.7013 8.10878 14.0621 7.30497C13.4229 6.50116 12.5079 5.96341 11.4946 5.79602C10.4996 5.84823 9.5308 6.13429 8.66698 6.63099C7.80316 7.12769 7.0686 7.82103 6.5229 8.65476C6.11159 9.27624 5.90805 10.0122 5.94155 10.7567C5.97505 11.5012 6.24388 12.2159 6.70934 12.7979C7.24003 13.4353 7.94578 13.9034 8.73946 14.1444ZM9.07091 9.64911C9.7008 8.96368 10.5666 8.54187 11.4946 8.46832C12.3647 8.46832 12.779 9.37981 12.8619 10.2499C13.1933 13.1293 10.9975 13.0672 9.67166 12.5907C9.15493 12.4249 8.70954 12.089 8.40801 11.6378C8.01442 10.892 8.51159 10.2084 9.07091 9.64911Z" fill="black"/>
    <path fill-rule="evenodd" clip-rule="evenodd" d="M13.069 25.7037C13.1361 24.6878 12.8268 23.6828 12.2002 22.8804C11.5736 22.078 10.6735 21.5344 9.6716 21.3534C8.65481 21.3734 7.65845 21.6426 6.76995 22.1374C5.88145 22.6322 5.12796 23.3375 4.57558 24.1914C4.16716 24.815 3.96717 25.5522 4.0044 26.2967C4.04162 27.0412 4.31415 27.7548 4.78274 28.3345C5.33167 28.953 6.05314 29.3931 6.85429 29.5982C10.9767 30.924 13.0275 28.7488 13.069 25.7037ZM6.52284 27.1952C6.0671 26.4494 6.52284 25.7658 7.12359 25.1236C7.75506 24.4371 8.61859 24.009 9.54731 23.9221C10.4174 23.9221 10.8317 24.8336 10.9145 25.7244C11.3496 29.536 7.31003 28.5417 6.52284 27.1952Z" fill="black"/>
</svg>
